<svg width="48" height="31" viewBox="0 0 48 31" fill="none" xmlns="http://www.w3.org/2000/svg">
<path id="&#60;/&#62;" d="M16.575 30.52L17.951 26.904L0.254997 18.04V14.84L14.015 7.96V10.84L4.095 15.672C3.73233 15.864 3.40167 16.024 3.103 16.152C2.80433 16.28 2.58033 16.3653 2.431 16.408C2.58033 16.4507 2.80433 16.536 3.103 16.664C3.40167 16.792 3.73233 16.952 4.095 17.144L18.847 24.504L27.935 0.439999H30.975L29.023 5.656L47.295 14.84V18.04L33.535 24.92V22.136L43.455 17.272C43.8603 17.08 44.2337 16.92 44.575 16.792C44.9377 16.6427 45.2043 16.5467 45.375 16.504C45.183 16.4613 44.9057 16.376 44.543 16.248C44.1803 16.0987 43.8177 15.928 43.455 15.736L28.095 8.056L19.615 30.52H16.575Z" fill="#C0A98F"/>
</svg>
